# xmcd CD database file
#
# Track frame offsets:
#	150
#	19082
#	46933
#	58803
#	76919
#	100854
#	118168
#	135480
#	154114
#	170395
#	188188
#	214301
#	231405
#	246782
#
# Disc length: 3584 seconds
#
# Revision: 0
# Processed by: cddbd v1.5.2PL0 Copyright (c) Steve Scherf et al.
# Submitted via: CDex 1.51
#
DISCID=bd0dfe0e
DTITLE=Eriko Ishihara - Love Standards
DYEAR=2007
DGENRE=Jazz
TTITLE0=I've got you under my skin
TTITLE1=My funny valentine
TTITLE2='S wonderful
TTITLE3=Tea for two
TTITLE4=Isn't it a pity?
TTITLE5=Quiet night of quiet stars/Corcovado
TTITLE6=En estate
TTITLE7=Misty
TTITLE8=Shall we dance
TTITLE9=Smile
TTITLE10=Violets for your furs
TTITLE11=You'd be so nice to come home to 
TTITLE12=Night and day
TTITLE13=What a wonderful world
EXTD=YEAR: 2007
EXTT0=
EXTT1=
EXTT2=
EXTT3=
EXTT4=
EXTT5=
EXTT6=
EXTT7=
EXTT8=
EXTT9=
EXTT10=
EXTT11=
EXTT12=
EXTT13=
PLAYORDER=
